<?xml version="1.0" standalone="no"?>
<!DOCTYPE svg PUBLIC "-//W3C//DTD SVG 20010904//EN"
 "http://www.w3.org/TR/2001/REC-SVG-20010904/DTD/svg10.dtd">
<svg version="1.0" xmlns="http://www.w3.org/2000/svg"
 width="225.000000pt" height="225.000000pt" viewBox="0 0 225.000000 225.000000"
 preserveAspectRatio="xMidYMid meet">
<metadata>
Created by potrace 1.16, written by Peter Selinger 2001-2019
</metadata>
<g transform="translate(0.000000,225.000000) scale(0.100000,-0.100000)"
fill="#000000" stroke="none">
<path d="M1675 2226 c-16 -7 -57 -39 -90 -69 l-60 -56 288 -288 288 -288 56
59 c30 33 62 74 69 93 20 46 17 110 -6 158 -25 51 -337 366 -385 389 -40 19
-119 20 -160 2z"/>
<path d="M1362 1955 c-34 -31 -62 -60 -62 -65 0 -4 133 -141 295 -304 l295
-296 65 62 66 63 -299 298 -298 298 -62 -56z"/>
<path d="M702 1295 l-489 -485 -21 -77 c-12 -43 -58 -202 -102 -353 -44 -151
-80 -285 -80 -296 0 -12 10 -34 22 -49 19 -25 26 -27 67 -22 25 4 69 13 96 21
28 8 142 41 255 74 113 33 241 70 285 83 l80 24 490 487 490 487 -62 62 -62
63 -479 -481 -479 -480 -164 -47 c-250 -72 -222 -69 -263 -27 -20 20 -36 44
-36 53 0 13 62 234 102 365 11 35 86 114 478 507 256 257 467 468 469 471 6 6
-90 105 -101 105 -4 0 -227 -218 -496 -485z"/>
<path d="M937 1103 c-257 -258 -470 -471 -473 -475 -4 -4 7 -10 22 -14 108
-24 103 -20 110 -75 4 -27 10 -52 14 -54 5 -3 221 206 482 464 l473 470 -75
75 c-41 42 -77 76 -80 76 -3 0 -216 -210 -473 -467z"/>
</g>
</svg>
